<svg xmlns="http://www.w3.org/2000/svg" viewBox="0 0 1200 800" width="1200" height="800">
  <!-- Background -->
  <rect width="1200" height="800" fill="#0d1117"/>

  <!-- Title -->
  <text x="600" y="38" font-family="monospace" font-size="20" font-weight="bold" fill="#58a6ff" text-anchor="middle">Session 09: SOC Workflow and Automation</text>
  <text x="600" y="58" font-family="monospace" font-size="13" fill="#8b949e" text-anchor="middle">Alert-to-Ticket Lifecycle · SOAR Architecture · Playbook Decision Tree · KPI Measurement Points</text>

  <!-- ── SECTION 1: Alert-to-Ticket-to-Closure Workflow (top-left) ── -->
  <rect x="20" y="72" width="420" height="330" rx="8" fill="#161b22" stroke="#30363d" stroke-width="1.5"/>
  <text x="230" y="93" font-family="monospace" font-size="13" font-weight="bold" fill="#f0883e" text-anchor="middle">Alert-to-Ticket-to-Closure Workflow</text>

  <!-- Flow boxes -->
  <!-- SIEM Alert -->
  <rect x="155" y="103" width="150" height="32" rx="5" fill="#1f3a5f" stroke="#58a6ff" stroke-width="1.5"/>
  <text x="230" y="123" font-family="monospace" font-size="11" fill="#58a6ff" text-anchor="middle">SIEM Alert Generated</text>

  <!-- Arrow down -->
  <line x1="230" y1="135" x2="230" y2="150" stroke="#30363d" stroke-width="1.5" marker-end="url(#arr)"/>

  <!-- L1 Triage -->
  <rect x="155" y="150" width="150" height="32" rx="5" fill="#1f3050" stroke="#79c0ff" stroke-width="1.5"/>
  <text x="230" y="170" font-family="monospace" font-size="11" fill="#79c0ff" text-anchor="middle">L1 Triage</text>

  <!-- Arrow down with branch -->
  <line x1="230" y1="182" x2="230" y2="197" stroke="#30363d" stroke-width="1.5" marker-end="url(#arr)"/>

  <!-- Known FP? diamond -->
  <polygon points="230,197 280,217 230,237 180,217" fill="#21262d" stroke="#6e7681" stroke-width="1.5"/>
  <text x="230" y="221" font-family="monospace" font-size="10" fill="#8b949e" text-anchor="middle">Known FP?</text>

  <!-- Yes branch (right) -->
  <line x1="280" y1="217" x2="360" y2="217" stroke="#30363d" stroke-width="1.5" marker-end="url(#arr)"/>
  <text x="320" y="212" font-family="monospace" font-size="9" fill="#6e7681" text-anchor="middle">Yes</text>
  <rect x="360" y="205" width="60" height="24" rx="4" fill="#1a2d1a" stroke="#3fb950" stroke-width="1"/>
  <text x="390" y="221" font-family="monospace" font-size="9" fill="#3fb950" text-anchor="middle">Close/Tune</text>

  <!-- No branch (down) -->
  <line x1="230" y1="237" x2="230" y2="252" stroke="#30363d" stroke-width="1.5" marker-end="url(#arr)"/>
  <text x="240" y="248" font-family="monospace" font-size="9" fill="#6e7681">No</text>

  <!-- Enrich -->
  <rect x="155" y="252" width="150" height="32" rx="5" fill="#2d1f4e" stroke="#d2a8ff" stroke-width="1.5"/>
  <text x="230" y="272" font-family="monospace" font-size="11" fill="#d2a8ff" text-anchor="middle">Enrich + Severity</text>

  <!-- Arrow down -->
  <line x1="230" y1="284" x2="230" y2="299" stroke="#30363d" stroke-width="1.5" marker-end="url(#arr)"/>

  <!-- Create Ticket -->
  <rect x="155" y="299" width="150" height="32" rx="5" fill="#1f3a5f" stroke="#58a6ff" stroke-width="1.5"/>
  <text x="230" y="319" font-family="monospace" font-size="11" fill="#58a6ff" text-anchor="middle">Create Ticket</text>

  <!-- Arrow + KPI label -->
  <line x1="230" y1="331" x2="230" y2="346" stroke="#30363d" stroke-width="1.5" marker-end="url(#arr)"/>
  <text x="244" y="342" font-family="monospace" font-size="8" fill="#f0883e">◄ MTTA</text>

  <!-- Execute Playbook -->
  <rect x="155" y="346" width="150" height="32" rx="5" fill="#3a1f1f" stroke="#f85149" stroke-width="1.5"/>
  <text x="230" y="366" font-family="monospace" font-size="11" fill="#f85149" text-anchor="middle">Execute Playbook</text>

  <!-- Arrow down -->
  <line x1="230" y1="378" x2="230" y2="390" stroke="#30363d" stroke-width="1.5" marker-end="url(#arr)"/>

  <!-- Resolved? diamond -->
  <polygon points="230,390 285,410 230,430 175,410" fill="#21262d" stroke="#6e7681" stroke-width="1.5"/>
  <text x="230" y="414" font-family="monospace" font-size="10" fill="#8b949e" text-anchor="middle">Resolved L1?</text>

  <!-- No branch -->
  <line x1="175" y1="410" x2="75" y2="410" stroke="#30363d" stroke-width="1.5" marker-end="url(#arr)"/>
  <text x="128" y="405" font-family="monospace" font-size="9" fill="#6e7681" text-anchor="middle">No → L2</text>
  <rect x="30" y="398" width="45" height="24" rx="4" fill="#3a2800" stroke="#e3b341" stroke-width="1"/>
  <text x="52" y="414" font-family="monospace" font-size="9" fill="#e3b341" text-anchor="middle">Escalate</text>

  <!-- Yes -->
  <line x1="230" y1="430" x2="230" y2="445" stroke="#30363d" stroke-width="1.5" marker-end="url(#arr)"/>
  <text x="240" y="441" font-family="monospace" font-size="9" fill="#6e7681">Yes</text>

  <!-- Close -->
  <rect x="155" y="445" width="150" height="32" rx="5" fill="#1a2d1a" stroke="#3fb950" stroke-width="1.5"/>
  <text x="230" y="462" font-family="monospace" font-size="11" fill="#3fb950" text-anchor="middle">Ticket Closure</text>
  <text x="320" y="465" font-family="monospace" font-size="8" fill="#f0883e">◄ MTTR</text>

  <!-- ── SECTION 2: SOAR Architecture (top-right) ── -->
  <rect x="460" y="72" width="360" height="330" rx="8" fill="#161b22" stroke="#30363d" stroke-width="1.5"/>
  <text x="640" y="93" font-family="monospace" font-size="13" font-weight="bold" fill="#f0883e" text-anchor="middle">SOAR Architecture</text>

  <!-- SOAR box -->
  <rect x="480" y="103" width="320" height="170" rx="6" fill="#1a1f2e" stroke="#58a6ff" stroke-width="1.5" stroke-dasharray="4,2"/>
  <text x="640" y="120" font-family="monospace" font-size="11" fill="#58a6ff" text-anchor="middle">SOAR Platform</text>

  <!-- Internal components -->
  <rect x="492" y="126" width="88" height="30" rx="4" fill="#1f3050" stroke="#79c0ff" stroke-width="1"/>
  <text x="536" y="145" font-family="monospace" font-size="9" fill="#79c0ff" text-anchor="middle">Workflow Engine</text>

  <rect x="596" y="126" width="88" height="30" rx="4" fill="#1f3050" stroke="#79c0ff" stroke-width="1"/>
  <text x="640" y="145" font-family="monospace" font-size="9" fill="#79c0ff" text-anchor="middle">Playbook Engine</text>

  <rect x="700" y="126" width="88" height="30" rx="4" fill="#1f3050" stroke="#79c0ff" stroke-width="1"/>
  <text x="744" y="145" font-family="monospace" font-size="9" fill="#79c0ff" text-anchor="middle">Case Manager</text>

  <!-- Integration Bus -->
  <rect x="492" y="172" width="296" height="26" rx="4" fill="#2d1f4e" stroke="#d2a8ff" stroke-width="1"/>
  <text x="640" y="189" font-family="monospace" font-size="10" fill="#d2a8ff" text-anchor="middle">Integration Bus / API Gateway</text>

  <!-- Connectors row -->
  <rect x="492" y="210" width="55" height="24" rx="3" fill="#1f2d1f" stroke="#3fb950" stroke-width="1"/>
  <text x="519" y="226" font-family="monospace" font-size="8" fill="#3fb950" text-anchor="middle">SIEM</text>

  <rect x="557" y="210" width="55" height="24" rx="3" fill="#1f2d1f" stroke="#3fb950" stroke-width="1"/>
  <text x="584" y="226" font-family="monospace" font-size="8" fill="#3fb950" text-anchor="middle">TI / MISP</text>

  <rect x="622" y="210" width="55" height="24" rx="3" fill="#1f2d1f" stroke="#3fb950" stroke-width="1"/>
  <text x="649" y="226" font-family="monospace" font-size="8" fill="#3fb950" text-anchor="middle">EDR</text>

  <rect x="687" y="210" width="55" height="24" rx="3" fill="#1f2d1f" stroke="#3fb950" stroke-width="1"/>
  <text x="714" y="226" font-family="monospace" font-size="8" fill="#3fb950" text-anchor="middle">Firewall</text>

  <rect x="752" y="210" width="55" height="24" rx="3" fill="#1f2d1f" stroke="#3fb950" stroke-width="1"/>
  <text x="779" y="226" font-family="monospace" font-size="8" fill="#3fb950" text-anchor="middle">AD/LDAP</text>

  <!-- Ticketing row -->
  <rect x="520" y="246" width="75" height="24" rx="3" fill="#3a1f1f" stroke="#f85149" stroke-width="1"/>
  <text x="557" y="262" font-family="monospace" font-size="8" fill="#f85149" text-anchor="middle">TheHive</text>

  <rect x="607" y="246" width="75" height="24" rx="3" fill="#3a1f1f" stroke="#f85149" stroke-width="1"/>
  <text x="644" y="262" font-family="monospace" font-size="8" fill="#f85149" text-anchor="middle">Jira / SNow</text>

  <rect x="694" y="246" width="75" height="24" rx="3" fill="#3a1f1f" stroke="#f85149" stroke-width="1"/>
  <text x="731" y="262" font-family="monospace" font-size="8" fill="#f85149" text-anchor="middle">PagerDuty</text>

  <!-- Platforms comparison -->
  <rect x="480" y="290" width="320" height="100" rx="5" fill="#21262d" stroke="#30363d" stroke-width="1"/>
  <text x="640" y="307" font-family="monospace" font-size="10" fill="#8b949e" text-anchor="middle">Platform Comparison</text>

  <!-- Table header -->
  <text x="510" y="323" font-family="monospace" font-size="9" fill="#6e7681">Platform</text>
  <text x="610" y="323" font-family="monospace" font-size="9" fill="#6e7681">Cost</text>
  <text x="660" y="323" font-family="monospace" font-size="9" fill="#6e7681">Integrations</text>
  <text x="745" y="323" font-family="monospace" font-size="9" fill="#6e7681">Best For</text>

  <text x="510" y="337" font-family="monospace" font-size="9" fill="#3fb950">Shuffle</text>
  <text x="610" y="337" font-family="monospace" font-size="9" fill="#3fb950">Free</text>
  <text x="660" y="337" font-family="monospace" font-size="9" fill="#3fb950">400+</text>
  <text x="745" y="337" font-family="monospace" font-size="9" fill="#3fb950">Labs/SMB</text>

  <text x="510" y="351" font-family="monospace" font-size="9" fill="#f0883e">XSOAR</text>
  <text x="610" y="351" font-family="monospace" font-size="9" fill="#f0883e">$$$$</text>
  <text x="660" y="351" font-family="monospace" font-size="9" fill="#f0883e">900+</text>
  <text x="745" y="351" font-family="monospace" font-size="9" fill="#f0883e">Enterprise</text>

  <text x="510" y="365" font-family="monospace" font-size="9" fill="#79c0ff">Splunk SOAR</text>
  <text x="610" y="365" font-family="monospace" font-size="9" fill="#79c0ff">$$$</text>
  <text x="660" y="365" font-family="monospace" font-size="9" fill="#79c0ff">350+</text>
  <text x="745" y="365" font-family="monospace" font-size="9" fill="#79c0ff">Splunk shops</text>

  <text x="510" y="379" font-family="monospace" font-size="9" fill="#d2a8ff">Sentinel LA</text>
  <text x="610" y="379" font-family="monospace" font-size="9" fill="#d2a8ff">$/exec</text>
  <text x="660" y="379" font-family="monospace" font-size="9" fill="#d2a8ff">200+</text>
  <text x="745" y="379" font-family="monospace" font-size="9" fill="#d2a8ff">Azure/M365</text>

  <!-- ── SECTION 3: Playbook Decision Tree (bottom-left) ── -->
  <rect x="20" y="420" width="560" height="365" rx="8" fill="#161b22" stroke="#30363d" stroke-width="1.5"/>
  <text x="300" y="441" font-family="monospace" font-size="13" font-weight="bold" fill="#f0883e" text-anchor="middle">Phishing Response Playbook Decision Tree</text>

  <!-- Trigger box -->
  <rect x="190" y="452" width="220" height="28" rx="5" fill="#3a1f1f" stroke="#f85149" stroke-width="1.5"/>
  <text x="300" y="470" font-family="monospace" font-size="10" fill="#f85149" text-anchor="middle">TRIGGER: Phishing Alert / User Report</text>
  <line x1="300" y1="480" x2="300" y2="495" stroke="#30363d" stroke-width="1.5" marker-end="url(#arr)"/>

  <!-- Extract -->
  <rect x="215" y="495" width="170" height="26" rx="4" fill="#1f3050" stroke="#79c0ff" stroke-width="1"/>
  <text x="300" y="512" font-family="monospace" font-size="10" fill="#79c0ff" text-anchor="middle">1. Extract IOCs (URLs, hashes)</text>
  <line x1="300" y1="521" x2="300" y2="536" stroke="#30363d" stroke-width="1.5" marker-end="url(#arr)"/>

  <!-- TI Check diamond -->
  <polygon points="300,536 355,556 300,576 245,556" fill="#21262d" stroke="#6e7681" stroke-width="1.5"/>
  <text x="300" y="560" font-family="monospace" font-size="9" fill="#8b949e" text-anchor="middle">2. TI: Known Bad?</text>

  <!-- Yes left -->
  <line x1="245" y1="556" x2="140" y2="556" stroke="#30363d" stroke-width="1.5" marker-end="url(#arr)"/>
  <text x="190" y="551" font-family="monospace" font-size="9" fill="#f85149" text-anchor="middle">Yes</text>
  <rect x="60" y="544" width="80" height="24" rx="4" fill="#3a1f1f" stroke="#f85149" stroke-width="1"/>
  <text x="100" y="560" font-family="monospace" font-size="9" fill="#f85149" text-anchor="middle">Auto-Quarantine</text>

  <!-- No right -->
  <line x1="355" y1="556" x2="460" y2="556" stroke="#30363d" stroke-width="1.5" marker-end="url(#arr)"/>
  <text x="410" y="551" font-family="monospace" font-size="9" fill="#3fb950" text-anchor="middle">No</text>
  <rect x="460" y="544" width="80" height="24" rx="4" fill="#1a2d1a" stroke="#3fb950" stroke-width="1"/>
  <text x="500" y="560" font-family="monospace" font-size="9" fill="#3fb950" text-anchor="middle">Sandbox URL</text>

  <!-- Continues down -->
  <line x1="300" y1="576" x2="300" y2="591" stroke="#30363d" stroke-width="1.5" marker-end="url(#arr)"/>

  <!-- Score calc -->
  <rect x="215" y="591" width="170" height="26" rx="4" fill="#2d1f4e" stroke="#d2a8ff" stroke-width="1"/>
  <text x="300" y="608" font-family="monospace" font-size="10" fill="#d2a8ff" text-anchor="middle">3. Calculate Risk Score</text>
  <line x1="300" y1="617" x2="300" y2="632" stroke="#30363d" stroke-width="1.5" marker-end="url(#arr)"/>

  <!-- Score diamond -->
  <polygon points="300,632 360,652 300,672 240,652" fill="#21262d" stroke="#6e7681" stroke-width="1.5"/>
  <text x="300" y="649" font-family="monospace" font-size="9" fill="#8b949e" text-anchor="middle">Score ≥ 80?</text>
  <text x="300" y="661" font-family="monospace" font-size="8" fill="#6e7681" text-anchor="middle">(High Confidence)</text>

  <!-- Yes high score -->
  <line x1="240" y1="652" x2="120" y2="652" stroke="#30363d" stroke-width="1.5" marker-end="url(#arr)"/>
  <text x="180" y="647" font-family="monospace" font-size="9" fill="#f85149" text-anchor="middle">Yes</text>
  <rect x="40" y="638" width="80" height="28" rx="4" fill="#3a1f1f" stroke="#f85149" stroke-width="1.5"/>
  <text x="80" y="653" font-family="monospace" font-size="9" fill="#f85149" text-anchor="middle">Block IOCs</text>
  <text x="80" y="663" font-family="monospace" font-size="9" fill="#f85149" text-anchor="middle">+ Delete Email</text>

  <!-- Check user clicked -->
  <line x1="300" y1="672" x2="300" y2="687" stroke="#30363d" stroke-width="1.5" marker-end="url(#arr)"/>
  <polygon points="300,687 355,707 300,727 245,707" fill="#21262d" stroke="#6e7681" stroke-width="1.5"/>
  <text x="300" y="705" font-family="monospace" font-size="9" fill="#8b949e" text-anchor="middle">User Clicked?</text>
  <text x="300" y="718" font-family="monospace" font-size="8" fill="#6e7681" text-anchor="middle">(SIEM log check)</text>

  <!-- Yes clicked -->
  <line x1="245" y1="707" x2="130" y2="707" stroke="#30363d" stroke-width="1.5" marker-end="url(#arr)"/>
  <text x="187" y="702" font-family="monospace" font-size="9" fill="#f85149" text-anchor="middle">Yes</text>
  <rect x="40" y="693" width="90" height="28" rx="4" fill="#3a2800" stroke="#e3b341" stroke-width="1.5"/>
  <text x="85" y="708" font-family="monospace" font-size="9" fill="#e3b341" text-anchor="middle">Escalate L2</text>
  <text x="85" y="718" font-family="monospace" font-size="9" fill="#e3b341" text-anchor="middle">Endpoint Check</text>

  <!-- No clicked -->
  <line x1="355" y1="707" x2="460" y2="707" stroke="#30363d" stroke-width="1.5" marker-end="url(#arr)"/>
  <text x="410" y="702" font-family="monospace" font-size="9" fill="#3fb950" text-anchor="middle">No</text>
  <rect x="460" y="693" width="90" height="28" rx="4" fill="#1a2d1a" stroke="#3fb950" stroke-width="1.5"/>
  <text x="505" y="708" font-family="monospace" font-size="9" fill="#3fb950" text-anchor="middle">Notify User</text>
  <text x="505" y="718" font-family="monospace" font-size="9" fill="#3fb950" text-anchor="middle">Close P3</text>

  <!-- Close path -->
  <line x1="300" y1="727" x2="300" y2="750" stroke="#30363d" stroke-width="1.5" marker-end="url(#arr)"/>
  <rect x="215" y="750" width="170" height="26" rx="4" fill="#1a2d1a" stroke="#3fb950" stroke-width="1.5"/>
  <text x="300" y="767" font-family="monospace" font-size="10" fill="#3fb950" text-anchor="middle">Ticket Closure + PIR</text>

  <!-- ── SECTION 4: KPI Measurement Points (bottom-right) ── -->
  <rect x="600" y="420" width="580" height="365" rx="8" fill="#161b22" stroke="#30363d" stroke-width="1.5"/>
  <text x="890" y="441" font-family="monospace" font-size="13" font-weight="bold" fill="#f0883e" text-anchor="middle">KPI Measurement Points</text>

  <!-- Timeline line -->
  <line x1="640" y1="510" x2="1155" y2="510" stroke="#30363d" stroke-width="2"/>
  <text x="640" y="530" font-family="monospace" font-size="9" fill="#6e7681">Event</text>
  <text x="1140" y="530" font-family="monospace" font-size="9" fill="#6e7681" text-anchor="end">Closed</text>

  <!-- Events on timeline -->
  <circle cx="650" cy="510" r="5" fill="#f85149"/>
  <text x="650" y="548" font-family="monospace" font-size="8" fill="#f85149" text-anchor="middle">Threat</text>
  <text x="650" y="558" font-family="monospace" font-size="8" fill="#f85149" text-anchor="middle">Event</text>

  <circle cx="760" cy="510" r="5" fill="#e3b341"/>
  <text x="760" y="548" font-family="monospace" font-size="8" fill="#e3b341" text-anchor="middle">SIEM</text>
  <text x="760" y="558" font-family="monospace" font-size="8" fill="#e3b341" text-anchor="middle">Alert</text>

  <circle cx="870" cy="510" r="5" fill="#58a6ff"/>
  <text x="870" y="548" font-family="monospace" font-size="8" fill="#58a6ff" text-anchor="middle">Analyst</text>
  <text x="870" y="558" font-family="monospace" font-size="8" fill="#58a6ff" text-anchor="middle">Ack</text>

  <circle cx="980" cy="510" r="5" fill="#d2a8ff"/>
  <text x="980" y="548" font-family="monospace" font-size="8" fill="#d2a8ff" text-anchor="middle">Contain</text>
  <text x="980" y="558" font-family="monospace" font-size="8" fill="#d2a8ff" text-anchor="middle">Start</text>

  <circle cx="1150" cy="510" r="5" fill="#3fb950"/>
  <text x="1150" y="548" font-family="monospace" font-size="8" fill="#3fb950" text-anchor="middle">Resolved</text>

  <!-- KPI brackets -->
  <!-- MTTD bracket -->
  <line x1="650" y1="480" x2="760" y2="480" stroke="#e3b341" stroke-width="1.5"/>
  <line x1="650" y1="476" x2="650" y2="484" stroke="#e3b341" stroke-width="1.5"/>
  <line x1="760" y1="476" x2="760" y2="484" stroke="#e3b341" stroke-width="1.5"/>
  <text x="705" y="473" font-family="monospace" font-size="9" fill="#e3b341" text-anchor="middle">MTTD</text>

  <!-- MTTA bracket -->
  <line x1="760" y1="468" x2="870" y2="468" stroke="#58a6ff" stroke-width="1.5"/>
  <line x1="760" y1="464" x2="760" y2="472" stroke="#58a6ff" stroke-width="1.5"/>
  <line x1="870" y1="464" x2="870" y2="472" stroke="#58a6ff" stroke-width="1.5"/>
  <text x="815" y="461" font-family="monospace" font-size="9" fill="#58a6ff" text-anchor="middle">MTTA</text>

  <!-- MTTR bracket -->
  <line x1="760" y1="445" x2="1150" y2="445" stroke="#3fb950" stroke-width="1.5"/>
  <line x1="760" y1="441" x2="760" y2="449" stroke="#3fb950" stroke-width="1.5"/>
  <line x1="1150" y1="441" x2="1150" y2="449" stroke="#3fb950" stroke-width="1.5"/>
  <text x="955" y="438" font-family="monospace" font-size="9" fill="#3fb950" text-anchor="middle">MTTR (Detection → Closed)</text>

  <!-- KPI Cards -->
  <!-- Row 1 -->
  <rect x="620" y="575" width="120" height="70" rx="5" fill="#21262d" stroke="#e3b341" stroke-width="1.5"/>
  <text x="680" y="595" font-family="monospace" font-size="11" font-weight="bold" fill="#e3b341" text-anchor="middle">MTTD</text>
  <text x="680" y="612" font-family="monospace" font-size="9" fill="#8b949e" text-anchor="middle">Mean Time to</text>
  <text x="680" y="624" font-family="monospace" font-size="9" fill="#8b949e" text-anchor="middle">Detect</text>
  <text x="680" y="638" font-family="monospace" font-size="10" fill="#e3b341" text-anchor="middle">Target: &lt;1h (P1)</text>

  <rect x="755" y="575" width="120" height="70" rx="5" fill="#21262d" stroke="#58a6ff" stroke-width="1.5"/>
  <text x="815" y="595" font-family="monospace" font-size="11" font-weight="bold" fill="#58a6ff" text-anchor="middle">MTTA</text>
  <text x="815" y="612" font-family="monospace" font-size="9" fill="#8b949e" text-anchor="middle">Mean Time to</text>
  <text x="815" y="624" font-family="monospace" font-size="9" fill="#8b949e" text-anchor="middle">Acknowledge</text>
  <text x="815" y="638" font-family="monospace" font-size="10" fill="#58a6ff" text-anchor="middle">Target: &lt;5m (P1)</text>

  <rect x="890" y="575" width="120" height="70" rx="5" fill="#21262d" stroke="#3fb950" stroke-width="1.5"/>
  <text x="950" y="595" font-family="monospace" font-size="11" font-weight="bold" fill="#3fb950" text-anchor="middle">MTTR</text>
  <text x="950" y="612" font-family="monospace" font-size="9" fill="#8b949e" text-anchor="middle">Mean Time to</text>
  <text x="950" y="624" font-family="monospace" font-size="9" fill="#8b949e" text-anchor="middle">Respond</text>
  <text x="950" y="638" font-family="monospace" font-size="10" fill="#3fb950" text-anchor="middle">Target: &lt;4h (P1)</text>

  <!-- Row 2 -->
  <rect x="620" y="660" width="120" height="70" rx="5" fill="#21262d" stroke="#f85149" stroke-width="1.5"/>
  <text x="680" y="680" font-family="monospace" font-size="11" font-weight="bold" fill="#f85149" text-anchor="middle">FPR</text>
  <text x="680" y="697" font-family="monospace" font-size="9" fill="#8b949e" text-anchor="middle">False Positive</text>
  <text x="680" y="709" font-family="monospace" font-size="9" fill="#8b949e" text-anchor="middle">Rate</text>
  <text x="680" y="723" font-family="monospace" font-size="10" fill="#f85149" text-anchor="middle">Target: &lt;20%</text>

  <rect x="755" y="660" width="120" height="70" rx="5" fill="#21262d" stroke="#d2a8ff" stroke-width="1.5"/>
  <text x="815" y="680" font-family="monospace" font-size="11" font-weight="bold" fill="#d2a8ff" text-anchor="middle">Auto Rate</text>
  <text x="815" y="697" font-family="monospace" font-size="9" fill="#8b949e" text-anchor="middle">Automation</text>
  <text x="815" y="709" font-family="monospace" font-size="9" fill="#8b949e" text-anchor="middle">Rate</text>
  <text x="815" y="723" font-family="monospace" font-size="10" fill="#d2a8ff" text-anchor="middle">Target: &gt;60%</text>

  <rect x="890" y="660" width="120" height="70" rx="5" fill="#21262d" stroke="#79c0ff" stroke-width="1.5"/>
  <text x="950" y="680" font-family="monospace" font-size="11" font-weight="bold" fill="#79c0ff" text-anchor="middle">SLA %</text>
  <text x="950" y="697" font-family="monospace" font-size="9" fill="#8b949e" text-anchor="middle">SLA Compliance</text>
  <text x="950" y="709" font-family="monospace" font-size="9" fill="#8b949e" text-anchor="middle">Rate</text>
  <text x="950" y="723" font-family="monospace" font-size="10" fill="#79c0ff" text-anchor="middle">Target: &gt;95%</text>

  <!-- Additional KPI context -->
  <rect x="1025" y="575" width="150" height="155" rx="5" fill="#21262d" stroke="#30363d" stroke-width="1"/>
  <text x="1100" y="595" font-family="monospace" font-size="10" font-weight="bold" fill="#f0883e" text-anchor="middle">SLA Targets</text>
  <text x="1040" y="613" font-family="monospace" font-size="8" fill="#6e7681">Sev.</text>
  <text x="1085" y="613" font-family="monospace" font-size="8" fill="#6e7681">Ack</text>
  <text x="1130" y="613" font-family="monospace" font-size="8" fill="#6e7681">Resolve</text>
  <line x1="1030" y1="617" x2="1170" y2="617" stroke="#30363d" stroke-width="1"/>
  <text x="1040" y="631" font-family="monospace" font-size="8" fill="#f85149">P1</text>
  <text x="1085" y="631" font-family="monospace" font-size="8" fill="#f85149">5m</text>
  <text x="1130" y="631" font-family="monospace" font-size="8" fill="#f85149">4h</text>
  <text x="1040" y="647" font-family="monospace" font-size="8" fill="#e3b341">P2</text>
  <text x="1085" y="647" font-family="monospace" font-size="8" fill="#e3b341">15m</text>
  <text x="1130" y="647" font-family="monospace" font-size="8" fill="#e3b341">8h</text>
  <text x="1040" y="663" font-family="monospace" font-size="8" fill="#58a6ff">P3</text>
  <text x="1085" y="663" font-family="monospace" font-size="8" fill="#58a6ff">1h</text>
  <text x="1130" y="663" font-family="monospace" font-size="8" fill="#58a6ff">24h</text>
  <text x="1040" y="679" font-family="monospace" font-size="8" fill="#3fb950">P4</text>
  <text x="1085" y="679" font-family="monospace" font-size="8" fill="#3fb950">4h</text>
  <text x="1130" y="679" font-family="monospace" font-size="8" fill="#3fb950">72h</text>

  <text x="1100" y="700" font-family="monospace" font-size="9" fill="#8b949e" text-anchor="middle">Automation</text>
  <text x="1100" y="713" font-family="monospace" font-size="8" fill="#6e7681" text-anchor="middle">Phishing:  70-90%</text>
  <text x="1100" y="726" font-family="monospace" font-size="8" fill="#6e7681" text-anchor="middle">IOC Enrich: ~100%</text>
  <text x="1100" y="739" font-family="monospace" font-size="8" fill="#6e7681" text-anchor="middle">Brute Force: 50-70%</text>

  <!-- Arrow markers definition -->
  <defs>
    <marker id="arr" markerWidth="8" markerHeight="8" refX="6" refY="3" orient="auto">
      <path d="M0,0 L0,6 L8,3 z" fill="#58a6ff"/>
    </marker>
  </defs>

  <!-- Footer -->
  <text x="600" y="790" font-family="monospace" font-size="10" fill="#6e7681" text-anchor="middle">Security Operations Master Class · Session 09 · SOC Workflow and Automation</text>
</svg>
